# xmcd
# 
# Track frame offsets:
#     150
#     11137
#     27695
#     39642
#     52592
#     65927
#     78492
#     89210
#     100872
#     114087
#     132952
#     145710
#     156422
#     169927
#     188047
#     198680
#     211420
#     224740
#     242652
#     255440
#     270182
#     288137
#     307570
#     328405
# 
# Disc length: 4575
# 
# Revision: 3
# Processed by: cddbd v1.5.2PL0 Copyright (c) Steve Scherf et al.
# Submitted via: fre:ac v1.0.31
# 
DISCID=6211dd18
DTITLE=Various Artist - La légende Country
DYEAR=1998
DGENRE=Country
TTITLE0=Willie Nelson - On the road again
TTITLE1=Johnny Cash - The city of New Orleans
TTITLE2=Tammy Wynette - Stand by your man
TTITLE3=Dolly Parton - I will always love you
TTITLE4=Billy Swan - I can help
TTITLE5=Charlie Mc Coy - Orange blossom special
TTITLE6=Roger Miller - King of the road
TTITLE7=Charlie Rich - The most beautiful girl
TTITLE8=B.J. Thomas - Raindrops keep fallin' on my head
TTITLE9=Bobbie Gentry - Ode to Billy Joe
TTITLE10=Lynn Anderson - Rose garden
TTITLE11=Frankie Laine - High noon
TTITLE12=Johnny Cash, Willie Nelson, Waylon Jennings, Kris Kristofferson - Highwayman
TTITLE13=Kris Kristofferson - Me and Bobby Mc Gee
TTITLE14=The Byrds - You're still on my mind
TTITLE15=Dolly Parton, Tammy Wynette, Loretta Lynn - It wasn't god who made honky tonk angels
TTITLE16=Charlie Daniels - Layla
TTITLE17=Rosanne Cash - Runaway train
TTITLE18=Darden Smith - A place in the sun
TTITLE19=Ricky Van Shelton - Wild man
TTITLE20=Chet Atkins and Mark Knopfler - Poor boy blues
TTITLE21=The Vaughan Brothers - Good Texan
TTITLE22=Calvin Russell - Valley far bellow
TTITLE23=Bob Dylan - Lay lady lay
EXTD=
EXTT0=
EXTT1=
EXTT2=
EXTT3=
EXTT4=
EXTT5=
EXTT6=
EXTT7=
EXTT8=
EXTT9=
EXTT10=
EXTT11=
EXTT12=
EXTT13=
EXTT14=
EXTT15=
EXTT16=
EXTT17=
EXTT18=
EXTT19=
EXTT20=
EXTT21=
EXTT22=
EXTT23=
PLAYORDER=
